<svg xmlns="http://www.w3.org/2000/svg" width="277" height="300" viewBox="0 0 2000 2169"
  xmlns:v="https://vecta.io/nano">
  <g fill="#dfffe6">
    <path
      d="M1047.29 61.09c3.04-8.77 5.07-18.08 10.26-25.93l73.71 204.62c39.27.52 78.49 3.16 117.77 3.32l105.46 4.9c-14.67 13.36-30.9 24.83-46.52 37.04l-111.7 86.26c-4.19 3.45-9.3 6.16-12.08 11.01.29 8.64 3.05 17.01 5.39 25.28 2.38 7.69 4.6 15.43 6.43 23.27l49.86 178.88-95.16-66.47-98.1-69.33c-10.14 5.83-19.39 12.99-28.63 20.12L867.72 610.18l67.02-221.44c1.56-5.8-4.63-9.12-8.26-12.33l-82.04-62.93-60.83-47.06c-7.31-5.51-15.36-10.65-20.07-18.76 14.13-1.32 28.34-.58 42.51-.73l144.97-.04c10.82-.17 21.65.24 32.47-.23 6.11-11.75 9.58-24.58 13.86-37.05l49.94-148.52m2.6 121.06c-1.32 6.56-3.01 13.49-1.15 20.12.91 3.37 3.51 5.88 6.4 7.67 5.49-7.73 3.67-17.63 2.22-26.33l-7.47-1.46m14.68 48.58l-9.24-8.71c-2.39 3.52-5.1 6.84-8.42 9.52-1.15-7.15-1.43-14.58-4.43-21.29l-4.62.79c-1.82 7.3-3.51 14.92-2.23 22.46.9 4.48 3.3 9.19 7.54 11.28 4.93-.32 8.01-4.75 11.63-7.55 4 2.27 8.37 7.61 13.35 4.95 10.33-9.02 8.9-28.03-2.82-35.31-.6 7.94-.53 15.91-.76 23.86m-55.79-9.76c-3.95 7.39-2.77 16.77 1.46 23.79.96 1.28 1.79 3.41 3.76 3.2 5.03-.19 7.85-5.23 9.34-9.43 1.84-8.17.31-16.78-2.94-24.4-4.69.28-9.39 2.54-11.62 6.84m74.97 12.53c-.89 8.34-.4 16.76 1.09 25.01 4 1.17 9.89.08 12.09 4.49 4.28 7.61 7.16 16.22 7.01 25.04.19 3.64-1.91 7.03-4.86 9.02-2.18 1.68-4.9-.36-7.09-1.04-10.76-5.14-16.56-16.15-24.43-24.55-3.2 9.99-5.16 20.83-11.79 29.27-3.4 4.51-8.73 7.09-14.25 7.81-5.39-7.35-6.02-16.77-6.06-25.56 0-9.73-.39-19.88-4.72-28.79-1.23-2.83-4.83-5.24-7.72-3.19-5.32 4.54-8.83 10.73-12.43 16.62-5.52 9.39-11.56 19.53-22.02 24.05l-8.53-10.72c-1.37 9.01-1.32 18.5 2.28 27.02 10.19-2.04 18.57-8.81 24.67-16.97 4.98-6.59 9.55-14.13 17.34-17.73.94 11.26.98 22.7 3.79 33.7 1.83 6.89 4.35 14.2 10.1 18.81 3.16 2.64 7.6 3.14 11.42 1.71 10.17-3.19 16.12-12.72 22.2-20.78 5.25 3.93 9.99 8.72 16.03 11.48 6.69 3.15 14.94 1.88 20.77-2.51 7.11-5.16 11.16-13.91 11.06-22.63.36-15.09-7.34-28.56-12.38-42.32-2.09-6.19-5.29-12.52-11.08-16-3.71-2.4-8.37-2.58-12.49-1.24m40.55 57.65c1.9 11.89 10.38 22.43 8.55 34.93-11.08 3.86-22.67 5.85-33.92 9.06-8.39 2.22-16.23 6-23.96 9.85-2.41 1.31-5.12 3.15-5.47 6.11-1.45 8.29-1.18 18.03 5.04 24.43 11.56 12.33 23.29 25.34 28.84 41.63-6.77 2.7-13.99 5.43-21.41 4.32-11.54-1.77-21.6-8.71-29.32-17.2-1.33-1.61-3.22-3.04-3.48-5.23-1.24-7.6-.68-15.34-1.2-22.99-3.46-.27-6.92-.42-10.37-.55-4.55 5.06-3.58 12.21-4.1 18.46-8.16.39-16.25-1.68-23.53-5.28-3.75 2.48-8.57 4.79-9.39 9.72-1.4 7.01 3.43 12.97 5.83 19.15 1.98 4.29 2.15 9.86-1.27 13.48-15.1 16.42-34 28.56-52.22 41.16l1.29 8.52c22.02-2.65 42.17-14.36 57.53-30.04 1.41-1.43 2.07-3.38 2.77-5.22 3.02-8.54 3.24-17.69 4.96-26.52 6.19-1.91 12.55-3.27 19.02-3.8 3.2 7.1 6.53 14.59 12.73 19.62 16.26 12.5 39 12.65 57.73 6.21 6.21-4.86 6.46-13.72 6.11-20.95-.89-7.94.37-16.39-3.3-23.78-5.71-11.73-16.33-20.43-21.1-32.7-.95-2.9-.89-7.24 2.39-8.61 13.85-7.09 29.23-10.4 44.52-12.64 6.13 27.34 9.71 55.36 18.95 81.93 4.35-6.85 5.44-15.18 5.08-23.15-.83-20.31-8.08-39.52-12.25-59.24 15.91-8.62 32.76-19.27 51.69-16.85-.44 3.37-1.42 6.77-3.66 9.41-5.2 6.27-12.94 9.68-18.3 15.78a214.06 214.06 0 0 0 .22 8.4c3.42-.43 7.87.21 9.96-3.24 7.31-9.65 16.1-18.18 22.5-28.52 2.6-4.09 3.79-9.27 2.51-14.01-.8-2.87-3.37-5.07-6.34-5.31-13.39-1.74-26.58 2.61-38.82 7.59-7.67 2.96-15.02 7.71-23.54 7.4.83-6.34 4.22-12.09 4.49-18.52.15-3.25-1.58-6.11-3.42-8.63-6.11-8.41-11.25-17.47-16.06-26.68-6.51 5.45-7.05 14.67-6.28 22.5m-123.36 53.69c-7.87 4.15-16.64 6.4-24.3 10.93-3.79 4.99-5.12 11.37-6.72 17.31l9.92 3.18c-.35 2.22-.55 4.67-2.23 6.35-3.05 3.24-7.55 4.31-11.61 5.7l-.48 5.88c8.81.8 18.79-2.16 23.6-10.05 2.73-6.58-.14-13.66-.47-20.41 12.3-7.14 26.17-11.64 37.27-20.77 1.54-1.38 3.74-2.59 3.97-4.87.16-2.56-.35-5.1-.62-7.63l-6.6-.88c-7.12 5.25-13.85 11.15-21.73 15.26m119.1 34.08c11.8 31.02 7.49 65.18 16.57 96.82 5.19-4.67 5.68-11.9 6.59-18.37 1.61-13.97-.15-28.01-2-41.86-1.33-9.22-4.26-18.2-4.65-27.55-.32-5.51 1.34-11.08-.15-16.5-2.23-8.76-8.62-15.75-15.63-21.11-5.06 8.69-4.28 19.48-.73 28.57m-89.68 70.51c-3.82 1.27-5.85 5.14-7.24 8.63-1.4 3.49-2.85 7.78-.3 11.14 3.31 4.35 8.7 7.4 14.2 7.56 7.72-.62 12.81-8.54 13.2-15.74-1.08-8.83-11.86-13.81-19.86-11.59z" />
    <path
      d="M605.03 141.54c21.57-4.1 43.62-2.19 65.41-1.83-15.93 7.01-32.62 12.96-46.69 23.47l7.15 10.85c-12.6 8.32-25.64 16.29-36.17 27.25.66 3.29 1.38 6.56 2.13 9.83-18.73 14.88-34.17 35.51-38.13 59.55 18.09-8.5 35.89-17.95 55.2-23.45 12.04-3.47 24.6-4.58 37.06-5.18 23.44-.93 47.68 2.26 68.65 13.34 12.11 6.2 22.28 15.66 30.65 26.29 12.98 16.64 21.4 36.54 25.83 57.09-8.88-11.31-19.04-22.58-32.86-27.74a530.46 530.46 0 0 0-1.87 27.33c-10.7-18.03-29.17-30.33-48.95-36.42l4.18 22.54c-13.51-5.24-27.08-12.7-42.05-11.41 2.43 8.24 5.38 16.31 7.81 24.55-18.86-2-39.01-5.19-56.96 2.86-16.41 6.51-23.98 27.16-18.35 43.35 16.27-11.83 33.76-22.43 53.03-28.56 17.95-5.88 37.15-6.63 55.86-5.38 22.6 1.71 44.98 7.62 65.11 18.11 12.7 6.65 24.75 14.92 34.21 25.79 17.95 20.27 27.71 46.7 31.18 73.29-6.76-14.32-13.9-29.81-27.85-38.54-.71 7.82-.73 15.69-.66 23.54-10.4-22.59-30.26-42.33-55.38-46.96l-.05 21.5c-17.37-7.07-35.52-13.9-54.56-13.47-9.36.04-18.4 2.75-27.22 5.6-6.02 2.01-11.82 5.17-15.88 10.16 22.17-.09 44.65.12 66.25 5.72 15.37 3.91 30.09 10.78 42.45 20.8 12.69 10.19 23.02 23.28 29.96 38 10.09 19.97 13.67 42.32 17.05 64.2-8.12-14.2-15.02-29.68-27.47-40.74-2.71-2.62-6.52-3.32-10.01-4.28-1.57 8.78-3.32 17.57-6.3 25.99-8.02-12.47-14.97-26.15-26.54-35.79-3.72-3.13-7.99-5.5-12.45-7.36-.24 8.23-.24 16.46-.15 24.69-10.33-15.49-21.86-30.65-37.09-41.66-10.94-7.98-24.09-13.25-37.72-13.63 3.83 6.07 8.26 12.07 14.36 16.03 4.55 2.16 10.03.1 14.56 2.41.91.9 1 2.3 1.47 3.46 3.6 12.15 6.07 24.63 9.99 36.69l13.62.74c2.28 12.08 4.47 24.18 7.36 36.13l18.98-4.42c4.31 18.45 6.68 37.27 10.15 55.88 5.92 1.56 9.38-4.56 13.97-7 5.39 17.36 6.72 35.63 11.29 53.19 5.06-2.71 10.21-5.21 15.48-7.48l7.69 50.01 13.99-2.65 3.2 53.13 14.33-1.91c2.31 16.85 1.92 33.89 2.75 50.84l14.95-.01c.23 17.2.11 34.43 1.39 51.6l14.49-1.03c-1.49 12.16-4.92 24.01-5.91 36.23 26.84 1.46 53.75 3.82 80.02 9.74 16.22 3.84 32.32 8.27 48.12 13.59 20.65 7.02 40.77 15.46 60.79 24.09 3.51 1.28 7.16 3.18 11.02 2.4 6.67-1.15 12.83-4.13 19.22-6.28 44.58-16.46 92.43-23.88 139.91-22.16l30.32 1.13c-.38-15.56-1.38-31.13-3.63-46.54l11.88 3.83c2.19-15.78 3.43-31.67 5.48-47.46l13.62 4.64c2.09-18.76 4.22-37.53 5.38-56.38 4.29 1.46 8.6 2.82 12.97 4.06 4.62-19.82 3.59-40.3 4.4-60.49 6.83 2.73 13.06 6.67 19.38 10.39 3.97-16.54 2.17-33.69 4.32-50.44l15.09 7.72 9.1-58 14.35 11.73c5.59-15.42 5.48-32.21 11.05-47.64l16.8-.52 1.89-28.87c5.14-.94 10.32-1.65 15.53-2.17 2.57-6.4 4.71-12.96 6.93-19.49l11.92-.24c4.49-8.11 9.03-16.27 11.93-25.11-18.28 2.58-34.37 13.73-45.29 28.31-3.48 4.47-6.62 9.26-10.63 13.29-2.4 3-7.43 1.66-9.13-1.44-2.92-4.96-3.11-10.94-5.35-16.18-9.3 8.68-15.45 19.98-23.33 29.84-3.08 3.91-8.25 4.8-12.66 6.41-.43-9.32.49-18.9-2.53-27.9-13.3 13.39-24.52 28.66-37.71 42.15-1.62-22.66 2.24-46.46 14.89-65.7 8.31-12.11 18.77-22.74 30.59-31.44 19.03-14.04 42.56-22.58 66.39-21.51 14.74.23 28.7 5.66 43.24 7.39-14.44-13.35-33.73-20.81-53.2-22.43-14.65-1.89-28.32 4.85-41.35 10.53l-5.92-16.89c-16.25 8.35-30.58 20.01-43.32 33.04l-3.85-10.75c-5.66.79-10.84 3.72-14.68 7.92-5.05 5.32-8.74 11.71-13.2 17.5-.03-22.74 6.69-45.9 20.93-63.85 8.3-10.03 18.27-18.76 29.52-25.36 20.3-11.92 44.34-17.1 67.77-15.24 31.4 1.32 59.93 16 87.47 29.76 7.96 5.04 14.72 11.99 23.56 15.64-.5-15.64-4.83-31.47-14.12-44.21-4.98-7.04-13.42-10.83-21.75-12.02-10.17-1.43-20.44-.29-30.63.06 1.26-7.89 2.67-15.77 3.34-23.75-15.66-1.16-30.41 6.02-42.85 14.84 1.83-9.57 3.88-19.12 4.94-28.81-19.43 3.02-34.5 17.15-46.69 31.61.41-8.08.72-16.24-.61-24.26-14.45 7.71-25.64 19.92-38.38 29.96.06-19.88 6.43-39.97 19.07-55.46 7.15-9.09 16.81-15.79 27.01-21.04 21.93-11.53 47-17.2 71.76-15.7 15.64.81 30.94 5.04 45.32 11.11 18.53 8.25 34.62 20.81 51.3 32.14.04-25.47-16.1-48.3-36.63-62.11l9.78-7.84c-5.45-15.59-20.3-25.13-34.92-31 1.33-5.27-.04-10.95-3.62-15.02-10.33-12.36-26.08-17.58-39.2-26.16 23.4-6.22 48.8-3.51 70.77 6.47 14.62 6.92 28.45 15.73 40.16 26.95 24.45 23.15 40.6 54.34 47.43 87.17 9.53-2.68 15.29-11.38 23.55-16.19 30.57-18.36 68.88-22.71 103.04-12.87 15.5 5.01 28.56 16.78 35.53 31.45 6.05 12.66 10.8 26.49 9.81 40.72l-8.44.83c-6.57-10.45-13.12-23.18-26.13-26.41-.1 6.67.02 13.33.17 20-15.01-10.72-31.77-20.84-50.71-21.59l3.68 17.6c-18.89-4.09-39.54-5.54-57.57 2.69-10.5 5.28-21.47 11.05-28.3 20.99 12.55-.7 24.73-4.05 37.14-5.74 38.23-4.41 78.27 2.08 111.79 21.48 19.59 11.61 36.94 26.87 51.82 44.07 22.16 28.46 30.45 67.32 21.45 102.3-2.26 8.33-3.33 17.32-8.53 24.49-4.52-17.93-8.89-35.95-15.29-53.33-7.13 4.64-12.4 11.67-19.92 15.78-2.73-15.62-4.52-31.4-7.13-47.04-1.65-8.18-2.34-17.26-7.99-23.88-2.13-2.68-5.51-3.77-8.8-3.95.02 6.97.15 13.95-.47 20.91-2.9-.08-5.77-.3-8.61-.7-6.2-16.05-15.76-33.25-33.08-39.08l.3 23.06c-13.78-11.36-28.93-22.46-46.91-25.64 3.5 9 7.81 18.07 7.72 27.96-18.48-6.23-37.97-10.48-57.57-9.16-9.53.61-18.98 2.61-27.86 6.13-8.5 3.18-17.31 6.91-23.2 14.14 38.18 3.55 76.82 13.21 108.94 34.9 45.8 31.85 78.75 80.66 93.92 134.11 5.78 21.71 6.6 44.69 2.66 66.8-2.18 10.23-3.79 20.92-9.32 30.01-.8-26.16-3.45-53.06-14.83-76.98-1.2-.14-1.63 1.22-2.27 1.94-5.43 7.68-8.22 16.81-13.11 24.8-3.54-17.45-5.66-35.43-12.72-51.93-3.87-9.12-9.58-17.52-17.12-24-3.34 9.45-6.25 19.07-10.31 28.24-6.31-10.54-9.66-22.49-15.44-33.29-9.31-18.63-23-35.15-40.14-47.08-2.32 7.28-3.12 14.92-3.64 22.5-13.38-14.2-25.43-29.83-40.86-41.95-14.63-11.11-31.68-20.32-50.38-21.33 15.46 13.83 32.24 26.18 46.76 41.04 21.63 22.13 37.8 50.81 40.94 81.94.7 9.98 1.06 20.43-2.44 29.97-5.41 14.11-19.4 24.5-34.54 25.27 4.72-10.58 9.8-21.34 10.67-33.06l-21.18.34c4.63-10.84 8.27-22.63 6.63-34.54-6.87 1.93-13.29 5.1-19.64 8.29.07-19.15.68-38.78-5.18-57.26-6.79 4.45-7.51 13.11-10.81 19.86-1.09-.23-2.88.56-3.26-.92-9.02-17.81-16.77-37.48-32.77-50.35-3.97-2.86-9.17-1.95-13.75-2.18l-5.63 7.18 8.83 4.83c-9.57 8.61-21.46 14.73-29.16 25.32 3.86 2.18 7.79 4.22 11.76 6.22-11.44 9.65-26.45 16.46-32.94 30.78l13.88 2.73.31 3.05c-15.88 8.81-31.71 20.38-38.94 37.67 5.26 1.29 10.52 2.64 15.72 4.19-14.34 9.07-30.88 17.41-38.66 33.39 6.84 2.04 13.82 3.58 20.78 5.23-13.57 11.47-28.79 22.03-37.62 37.89 5.79 2.03 11.85 3.07 17.92 3.86-10.1 12.03-24 20.44-32.88 33.57 8.03 2.39 16.42 3.15 24.76 3.67-11.45 11.83-24.54 22.18-34.43 35.45-4.26 5.71-7.71 12.03-10.03 18.78l19.31.96c-12.67 11.4-24.88 23.92-32.37 39.44 6.74 1.87 13.6 3.25 20.44 4.72-11.72 14.99-28.15 27.22-33.91 46.09 42.39 4.88 84.27 14.24 124.65 28.06 1.52 24.14.27 48.36 1.85 72.5 1.59 29.34.75 58.76 2.69 88.07 1.15 26.63.31 53.3 1.85 79.92.89 11.31.76 22.68 1.08 34.02l3.55 146.04c.45 7.09-5.23 12.15-9.28 17.21-14.36 16.57-26.71 34.91-42.57 50.15-33.93-20.03-68.6-39.42-106.05-52.09-9.31-2.92-18.8-5.82-28.62-6.16-8.34-.31-16.9 2.16-23.36 7.53-6.6 5.76-9.64 14.7-9.55 23.31l20.8-4.48c-4.52 11.99-12.4 22.51-15.84 34.95l24.62-3.63c-8.41 19.96-23.28 38.26-23.19 60.88l23.09-5.87c-6.95 19.91-17.5 39.33-17.46 60.94 8.3-3.38 16.62-6.74 24.64-10.75-3.4 16.47-11.06 31.9-12.65 48.78 18.86-3.29 36.33-11.45 53.86-18.78 44.82-19.3 85.67-46.86 122.95-78.14 19.4-17.88 39.89-34.74 56.97-54.96 38.27-41.6 70.82-88.24 98.5-137.47 9.86-18.24 18.02-37.36 25.2-56.79 15.92-42.54 27.96-86.62 34.28-131.63 7.05-48.69 7.77-98.33 1.7-147.17-9.51-82.43-38.87-161.53-78.46-234.08-8.95-16.43-18.36-32.62-28.42-48.39-12.56-19.55-26.05-38.47-39.27-57.57 14.6 10.79 27.35 23.84 39.71 37.09 10.28 11.38 21.39 21.97 31.46 33.55 26.48 29.77 49.68 62.3 70.92 95.96 21.19 33.41 38.5 69.16 53.24 105.83 33.52 83.66 49.88 173.76 50.93 263.76.74 49.54-2.84 99.09-9.53 148.16-3.08 17.33-8.28 34.19-12.51 51.25-18.07 68.38-45.52 134.4-82.45 194.77-18.23 29.45-38.22 57.95-61.36 83.78l-16.74 19.16c-68.97 72.15-155.1 127.73-249.21 160.98-17.59 7.55-35.91 13.15-54.33 18.25-27.3 9.2-55.67 14.52-83.7 20.97l-39.36 6.06c-7.52.97-14.96 2.71-22.55 2.84-17.63.55-35.26.33-52.89.39-23.75.67-47.36-2.58-71-4.37-8.32-.87-16.77-.55-24.99-2.25l-44.02-7.55c-8-1.47-16.14-2.28-23.98-4.53-23.76-6.13-48.04-10.49-71.17-18.87-5.35-2.09-10.81-3.86-16.28-5.57-23.75-7.88-46.52-18.34-69.2-28.83-17.24-7.51-33.52-16.95-49.74-26.38-34.27-20.43-66.79-43.83-96.73-70.19-12.43-10.19-23.86-21.51-34.99-33.09-11.03-11.61-23.05-22.3-33.2-34.73-7.89-9.48-15.28-19.37-23.24-28.79-11.45-12.56-20.44-27.02-29.99-41.01-17.03-22.7-30.44-47.75-44.8-72.15-3.37-5.52-5.93-11.47-8.84-17.22-20.5-41.96-39.07-84.91-54.03-129.17-5.48-17.66-12.22-34.96-16.28-53.03-2.22-9.13-2.42-18.56-4.21-27.76-8.74-55.21-12.51-111.27-10.22-167.15 2.79-69.36 15.03-138.59 38.94-203.87 12.48-34.41 28.74-67.33 46.86-99.1 19.06-32.7 41.26-63.49 65.32-92.68 18.42-22.45 38.05-43.97 59.66-63.4 17.01-16.9 34.9-32.92 53.82-47.67-54.55 68.6-102.59 143.9-130.13 227.62-4.66 15.51-8.38 31.29-13.24 46.75-16.01 63.33-19.27 129.54-12.42 194.39 5.29 47.75 14.99 95.11 30.43 140.65 35.02 104.38 97.57 199.94 181.64 271.35 44.28 36.66 92.9 68.11 144.66 93.16 13.45 6.69 26.9 13.6 41.31 18.04-2.27-14.98-7.22-29.36-10.65-44.08 7.1 2.63 14.2 5.27 21.51 7.27-4.95-20.21-13.8-39.12-21.12-58.51 9.01 1.05 17.94 2.71 26.92 4.05-7.14-21.1-17.33-41.01-24.68-62.03 8.05 5.28 16.22 10.43 24.92 14.59-5.25-18.43-19.16-32.66-25.71-50.51l26.3 3.64c-4.54-14.48-12.31-27.59-18.64-41.3-57.75 2.15-113.77 21.92-163.27 51.06-6.2-3.97-11.4-9.28-15.85-15.09-11.98-15.56-25.95-29.43-38.14-44.81-3.98-4.59-2.06-11.09-2.01-16.55l25.69-320.12 5.94-70.85c.56-7.35 1.22-14.71.97-22.09 22-9.51 45.74-13.79 69.11-18.54 20.72-3.95 41.9-3.74 62.89-4.85-5.02-12.95-13.04-24.47-18.33-37.3l10.49-4.46c-4.57-16.61-17.36-28.96-25.08-43.99l11.92-5.1c-9.9-18.78-24.62-34.31-36.59-51.7l20.46 1.3c-8.8-16.31-24.21-27.65-33.72-43.46l10.05-4.7c-7.77-15.34-17.96-29.28-26.27-44.32l7.54-5.83c-7.73-12.89-17.28-24.55-25.57-37.06l6.61-3.55c-3.55-8.77-10.39-15.49-16.07-22.85-2.14-2.91-4.66-5.88-4.98-9.62-.57-3.79.09-7.97-2.03-11.35-4.97-8.53-11.6-15.91-17.01-24.14-4.17-5.71-2.82-13.43-6.46-19.36-8.07-13.75-16.2-27.91-28.45-38.43-12.52 4.36-26.69 9.27-33.63 21.48-4.25 8.79-9.6 16.96-14.9 25.14-3.52-7.4-6.06-15.23-9.98-22.44l-3.67.61c-7.24 21.19-7.58 44.15-4.2 66.11-7.42-5.53-14.98-11.15-23.79-14.25 1.03 12.55 4.31 24.76 6.43 37.14l-14.13-3.91c1.05 13.62 3.74 27.13 3.35 40.83-15.27-4.5-28.65-15.25-36.29-29.22-6.79-15.91-5.82-34.04-1.44-50.46 3.2-12.49 8.76-24.32 16.39-34.7 15.54-21.55 37.37-37.47 59.81-51.18 3.51-1.92 6.19-4.96 8.42-8.22-21.14 3.83-41.52 12.11-59.17 24.4-7.62 5.61-13.76 13.15-22.22 17.62l-7.42-15.82c-13.43 6.69-24.11 17.51-34.41 28.17-10.34 11.06-17.67 24.48-27.63 35.86-4.03-7.34-7.93-14.77-12.74-21.63-10.82 8.87-15.51 22.45-22.21 34.26-6.41 11.05-10.61 23.17-15.48 34.93-2.58-6.78-5.46-13.56-9.87-19.38-14.03 20.78-18.32 45.93-25.96 69.35-3.25-41.61 1.95-84.59 19.57-122.72 7.08-14.87 15.49-29.22 26-41.95a180.53 180.53 0 0 1 48.72-41.38c14.85-8.79 31.17-14.73 47.66-19.62 27.04-7.75 55.11-10.68 82.99-13.65-1.75-2.47-3.43-5.13-6.06-6.75-14.38-9.12-30.13-16.27-46.74-20.14-18.75-4.35-38.15-3.49-57.21-2.48 3.6-8.85 7.49-17.6 10.52-26.68-20.91.26-40.39 9.17-58.38 19.05l-1.74-17.9c-6.37.94-12.3 3.93-17.04 8.25-7.3 6.58-12.61 14.96-18.91 22.44-3.81-6.98-7.54-14.18-13.27-19.82-20.11 18.51-27.73 46.01-32.51 72-1.97-4.44-3.62-9.08-6.42-13.08-1.01-1.85-3.67-2.16-5.27-.93-2.7 1.98-4.42 4.95-6.19 7.72-7.26 11.85-10.85 25.41-14.52 38.68-5.5-23.56-7.66-48.43-2.29-72.22 3.08-13.36 8.6-26.33 17.19-37.09 16.67-21.65 39.95-37.53 65.1-47.78 29.07-12.44 61.57-15.38 92.77-11.58 10.93 1.22 21.66 3.67 32.38 6.03 8.89 2.12 17.65 4.9 26.74 6.07-4.35-6.57-10.86-11.18-17.26-15.56-19.14-12.82-40.81-21.54-63.15-26.91-1.02-5.26-2.15-10.5-3.48-15.69-16.8-.09-32.44 6.88-47.37 13.83l-.41-21.36c-5.66-.4-11.31 1.19-16.05 4.26-8.42 5.37-14.82 13.29-23.12 18.82-1.62-12.85-1.09-26.76 5.76-38.14 7.31-11.57 19.31-19.72 32.38-23.43 13.44-3.95 27.69-4.46 41.55-3.06 25.44 3.18 48.26 15.86 69.96 28.74 11.89 6.84 22.38 15.98 34.84 21.85 5.11-19.38 8.4-39.8 19.23-57.05 7.19-13.03 19.04-22.48 30.63-31.41 14.15-10.18 30.48-17.3 47.48-21.07m2.33 330.66c7.19 13.86 17.03 26.08 24.91 39.51l15.65 26.46c36.63 62.24 67.93 127.7 92.35 195.7 10.35 28.34 19.24 57.19 28.16 86.01 6.14 20.88 11.11 42.09 17.41 62.92 9.3 2.61 18.89.19 28.19-1.17-.62-14.44-5.35-28.23-8.57-42.21-23.16-87.92-55.54-173.51-97.75-254.09a381.08 381.08 0 0 0-18.81-36.29l-26.6-44.36c-11.09-17.91-22.22-35.83-34.65-52.85-8.08 5.19-16.68 11.03-20.29 20.37m831.99 25.05c-3.17 3.99-5.82 8.37-8.5 12.69l-29.92 51c-21.45 37.69-42.83 75.49-61.3 114.75-35.2 74.03-66.77 150.21-87.01 229.8 8.87.38 17.75.21 26.63-.04 7.35-20.85 11.13-42.77 18.63-63.57 36.66-112.5 93.87-217.26 160.21-314.84 4.22-6.55 9.61-12.55 11.69-20.24l-23.89-9.64c-2.05-.6-4.87-1.88-6.54.09M649.42 911.28c-2.89 27.15-4.08 54.44-5.42 81.7l-4 67.07-12.42 234.9c-.9 11.91-1.33 23.87-.69 35.82 15.07-2.72 29.16-8.92 43.86-13.01 75.43-22.38 157.61-24.95 233.16-1.75 37.91 11.69 73.72 29.58 106.87 51.25 6.29 3.97 12.24 8.63 19.25 11.29 12.52-5.71 23.92-13.58 36.56-19.07 59.9-28.96 127.47-42.76 193.91-36.72 43.05 3.58 85.43 13.84 125.82 29.07 10.72 3.98 20.93 9.31 31.96 12.45 0-30.77-.36-61.55-1.63-92.29l-1.15-89.02c.01-10.33-.89-20.62-1.15-30.94-1.13-32.66-1.05-65.35-1.53-98.02-.1-21.7-1.53-43.37-1.4-65.06-.19-12.08.05-24.22-1.33-36.23-1.34-3.74-5.75-4.76-9.1-5.91-48.55-15.19-99.11-24.5-150.04-25.47-24.06-.58-48.08 1.29-71.99 3.76-42.56 4.44-84.86 12.32-125.7 25.23-7.02 2.62-13.96-.54-20.35-3.26-31.59-12.37-63.99-22.61-96.87-30.92-42.12-11.29-85.6-16.69-129.06-19.3-52.89-2.25-105.75 4.22-157.56 14.43m203.68 444.7c.35 4.95.81 9.9 1.49 14.83 3 21.71 5.4 43.52 6.62 65.41 2.52 46.72-.78 93.59-7.34 139.88-.14 3.52-1.93 9.06 2.24 10.91 10.23 2.95 20.55 5.67 31.02 7.68 4.02-4.24 5.19-10.09 6.32-15.6 7.36-29.07 13.71-58.45 17.63-88.2 3.02-20.75 2.86-41.79 2.62-62.7-.56-22.8-3.29-45.73-10.32-67.5-16.64-2.68-33.51-3.23-50.28-4.71m306.39 17.22c-18.22 53.7-21.72 111.7-14.06 167.68 3.23 22.16 5.13 44.76 12.54 66.04 16.08-5.08 31.89-10.97 47.76-16.66-.59-29.51-5.06-58.78-6.01-88.27-.58-31.4-1.51-63.06 3.64-94.17 2.15-13.51 5.53-26.8 7.42-40.36-17.18 1.03-34.29 3.04-51.29 5.74m-135.16 52.92c-12.38-10.76-22.94-23.64-36.55-32.95-12.75-8.46-25.77-17.28-40.87-20.87-4.82 12.07-9.83 24.16-12.72 36.87l10.86 1.69c-2.17 14.58-6.81 28.74-7.89 43.5l9.91 2.07c-4.03 21.47-10.11 42.53-13.43 64.14l11.59.24c-2.25 12.28-8.37 23.3-12.38 35.01l14.45 2.95c-5.86 14.53-13.93 28.04-20.07 42.45 5.29 2.65 11.04 4.3 16.91 5.06 25.51 3.58 51.06 7.46 76.86 8.09 35.52.44 71.54 2.07 106.49-5.63-4.29-13.99-11.85-26.73-15.83-40.83 8.5-1 17.06-1.36 25.59-1.96-7.42-17.9-20.31-32.92-27.36-51.01 5.2-.56 10.41-.99 15.63-1.38-2.73-18.27-13.18-34.37-15.57-52.72l18.84-1.82c-4.46-15.11-11.81-29.15-16.83-44.07l13.34-6.5c-.85-12.31-3.85-24.32-6.23-36.38-34.23 12.94-64.2 34.36-94.74 54.05zm-382.9-923.47c2.9.71 5.91 1.74 7.9 4.1 3.39 3.64 4.21 8.82 3.98 13.62-2.74-.36-5.69-.87-7.65-3.01-3.72-3.88-4.25-9.6-4.23-14.71zm22.22 40.26c3.91 1.01 8.77 1.7 10.84 5.67 1.13 3.84.72 7.93.78 11.89-7.08-2.84-11.26-10.14-11.62-17.56zm748.98 19.59c-.5-6.72 2.48-14.44 9.62-16.19 1.86 1.69 3.83 3.87 3.37 6.63-.86 5.99-7.08 10.29-12.99 9.56zm-16.46 20.68c2.12-1.87 4.98-2.19 7.69-2.38.55 4.47-.02 9.39-3.14 12.88-2.24 2.71-5.68 3.86-9 4.5-1.2-5.31.02-11.5 4.45-15zm-708.08-.51c6.87 3.23 11.11 10.65 10.39 18.23-2.93-.35-6.06-.96-8.12-3.25-3.88-3.92-4.05-10.04-2.27-14.98zm681.85 54.61c-.6-7.86 5.22-14.63 12.46-16.89 1.9 5.92-.19 12.24-4.08 16.86-2.81-.05-5.6-.01-8.38.03zm-658.69-4.17c4.87-.43 9.79 2.36 11.58 6.99 1.63 3.48.74 7.45-1.02 10.71-6.86-2.96-11.2-10.26-10.56-17.7zm641.28 34.47c2.13-1.68 4.9-1.89 7.51-2.11.2 4.21-.42 8.84-3.58 11.94-2.39 2.66-6.05 3.42-9.47 3.52-.03-4.91 1.38-10.34 5.54-13.35zM43.49 893.37c17.28-75.44 43.16-149.3 81.17-216.89 18.51 5.71 35.66 14.84 53.34 22.57 15.26 7.48 31.1 13.69 46.43 21.01-2.65 11.48-8.1 22-13 32.63-18.48-7.6-36.61-16.01-54.76-24.35-5.06-2.28-10.15-4.76-15.71-5.5-5.07 5.49-7.48 12.7-10.89 19.22-20.29 40.72-36.6 83.43-48.41 127.38 13.73 5.97 27.53 11.84 41.74 16.62 5.86-14.9 9.4-30.56 14.14-45.82 55.63 14.36 110.21 32.53 165.93 46.59-2.57 11.91-7.06 23.28-11.32 34.66-18.93-2.93-36.27-11.46-54.38-17.22-4.22-1.47-8.72-1.38-13.12-1.48-4.3 18.21-7.81 36.74-8.07 55.51 19.69 4.08 39.49 7.71 58.9 13.01-2.33 51.6-9.34 102.82-14.03 154.22-23.51-.22-47-1.43-70.5-1.83-32.29-3.03-64.88-1.93-97.06-6.3 3.03-58.15 6.8-116.79 21.77-173.31 20.14.74 40.2 2.9 60.32 3.95 1.65-1.38 3.29-2.92 3.92-5.05 1.96-5.7 2.94-11.67 4.48-17.48 2.89-11.02 6.3-21.97 7.56-33.33-10.11-2.09-20.25-4.53-30.62-4.79l-7.42 39.42c-7.02-.29-13.87-2.02-20.49-4.29-29.89-9.98-60.56-17.61-89.92-29.15m91.89 154.69c-.71 12.43-1.75 24.96-.3 37.38 8.43.75 16.96 1.04 25.36-.28 2.03-14.98 1.86-30.16 3.71-45.16 1.45-18.38 5.82-36.34 9.34-54.39-10.07-2.45-20.29-4.46-30.67-4.91-4.94 22.12-5.9 44.83-7.44 67.36m72-62.86c-4.79 34.3-8.06 68.92-7.26 103.59 8.06.44 16.13.7 24.2.82 2.67-10.29 2.9-20.97 3.53-31.51.3-6.33 1.36-12.59 1.84-18.9 1.76-16.96 5.77-33.56 8.67-50.33-10.19-2.07-20.51-4.34-30.98-3.67zm522.93-308.82l9.18 1.36c1.82 4.97 3.16 10.1 4.05 15.32l-8.6-.75c-2.58-4.94-4.83-10.24-4.63-15.93zm595.59 42.5c1.93-4.22 6.22-6.59 10.48-7.89-.05 3.89.41 7.92-.73 11.7-2.58 2.98-6.32 4.57-9.67 6.49-1.24-3.29-1.79-7.07-.08-10.3zm-574.27 13.33l8.8.02c2.8 5.22 4.7 11.1 3.95 17.1-8.09-1.4-11.87-9.78-12.75-17.12zm556.66 30.04c2.15-2.24 5.26-2.96 8.22-3.39.26 5.19-.96 11.11-5.43 14.31-2.11 1.66-4.88 1.78-7.42 1.96.19-4.61 1.16-9.57 4.63-12.88zm440.52 45.63c32.51-9.27 64.71-19.76 97.69-27.35 20.08 35.01 35.66 72.48 48.01 110.87 5.57 16.6 10.02 33.55 13.74 50.66 5.75 25.78 10.27 52.05 9.97 78.55l-116.76 23.2c-9.06 1.92-18.21 3.41-27.41 4.37-2.8-1.82-3.9-4.98-4.1-8.16-1.35-8.27-1.99-16.65-2.08-25.02 39.23-9.4 79.1-16.11 117.96-27.08-13.77-59.05-32.44-116.98-56.47-172.67-12.71 3.52-24.66 9.19-36.79 14.28 1.94 11.46 6.85 22.07 10.77 32.94 9.96 28 22.66 55.05 30.35 83.83-9.89 3.17-20.03 5.43-30.17 7.6-5.49-7.17-7.83-15.95-11.03-24.23l-25.6-69.55c-3.31-9.02-6.33-18.14-10.11-26.97-3.45-8.15-6.73-16.46-7.97-25.27zm-979.46-22.87l8.56-.02c2.68 5.27 4.77 11.05 4.22 17.07-2.6-.5-5.33-1.12-7.27-3.04-3.85-3.58-4.99-9-5.51-14.01zm521.73 26.05c2.47-2.9 6.26-4.07 9.95-4.28-.09 5.29-1.11 11.35-5.58 14.77-2.11 1.75-4.97 1.5-7.51 1.37-.69-4.18.12-8.73 3.14-11.86zm-504.3 33.11c2.7.62 5.56 1.38 7.5 3.51 3.7 3.76 4.4 9.31 4.43 14.35-4.13-1.06-9.2-2.11-11.17-6.39-.99-3.74-.67-7.66-.76-11.47zm1126.4 16.76c10.81-4.36 22.67-2.82 34-2.39l16.46 51.79c-10.78 3.26-22.14 3.49-33.31 3.54-6.18-17.5-10.81-35.5-17.15-52.94zm-641.46 10.79c2.85-1.46 6.15-1.38 9.25-1.84.14 5.42-1.5 11.6-6.4 14.6-2.35 1.58-5.25 1.32-7.88.9 1.42-4.61 2.14-9.68 5.03-13.66zm-89.97 87.41c17.83-7.71 33.79-19.56 52.63-24.93.25 3.56.39 7.12.55 10.69-3.47 4-8.66 5.55-13.25 7.82-10.44 4.45-20.48 9.81-30.99 14.11-2.1.57-4.42 2.48-6.56 1.16-2.96-1.87-2.06-5.91-2.38-8.85zM754 958.96c13.26-5.69 25.79-13.22 39.79-17.03-1.41 5.03-1.24 11.62-6.19 14.71-11.73 5.82-23.97 10.52-35.86 15.97-6.25 2.83-12.19 6.32-18.6 8.79-8.33 3.27-16.94 5.77-25.35 8.8-.35 7.12.23 14.4-1.34 21.39-3.09 4.46-8.61 6-13.26 8.27 1.65-5.33 3.86-10.49 5.09-15.93 1.68-6.09-2.65-11.51-4.89-16.84 19.97-9.88 40.14-19.35 60.61-28.13z" />
    <path
      d="M898.92 975.91c20.44-8.78 40.45-18.59 61.34-26.28l-.41 9.94-56.12 28.28c-7.25 3.67-14.51 7.85-22.74 8.77.68-4.29.47-9.03 2.67-12.86 4.55-3.53 10.1-5.42 15.26-7.85z" />
    <path
      d="M838.58 953.04c1.29-.32 1.85 1.09 2.62 1.86 6.22 7.94 9.01 17.88 11.11 27.59 3.26 14.04 5.01 28.36 7.69 42.51 1.72 8.87 3.55 17.96 8.22 25.83 3.96 6.82 9.92 13.05 17.72 15.24 9.48 2.38 19.59.35 28.24-3.9 21.67-11.42 36.03-32.54 56.88-45.15 3.79-2.16 8.73-2.84 12.73-.81 2.93 1.43 4.24 4.61 5.63 7.37 6.22 12.81 9.23 27.38 7.3 41.57-1.05 7.87-8.66 15.03-16.89 13.53-11.39-1.09-19.76-9.76-29.89-14.1-18.32 8.53-36.88 19.73-57.83 18.72-16.79-.26-33.79-10.55-39.58-26.69-6.04-19.8-9.35-40.3-12.37-60.74-1.49-10.91-3.29-21.83-3.21-32.87.1-3.38.53-6.76 1.63-9.96m132.68 88.33c-4.32 1.97-5.94 7.55-4.51 11.87 1.52 4.69 7.36 7.72 11.94 5.37 6.58-2.44 7.14-13.15.98-16.37-2.52-1.42-5.67-1.84-8.41-.87zm317.11-61.91c14.85-16.65 37.79-24.51 59.76-23.8l-.58 12.66c-11.41 2.13-23.25 3.22-33.9 8.18-6.95 2.95-13.25 7.24-20.3 9.95-3.72 1.82-7.74-4.03-4.98-6.99zm-68.84 5.09c-8.65-7.87-4.34-23.03 5.53-27.79l2.66 12.95c8.02-2.43 16.31-5.59 21.77-12.28 3.83 6.6 2.83 16.81-4.26 20.69-8.33 3.02-17.08 4.54-25.7 6.43zm-413.91 4.49c-1.16-8.77-.46-17.88 2.91-26.1 6.48 5.89 10.67 13.83 13.45 22.03 3.19 9.46 5.1 19.28 6.99 29.07 2.15 11.54 3.45 23.5 1.12 35.13-1.83 8.95-8.1 16.66-16.07 20.96-5.8 3.2-12.48 4.16-18.97 4.75-16.4 1.24-32.58-2.35-48.88-3.33-4.06 4.99-8.4 10.98-15.22 12.03-8.51.27-15.61-5.87-24.05-5.98-7.4 4.01-12.66 11.71-21.04 14.24-7.19 2.75-15.02 2.49-22.58 2.76 11.95-9.68 24.25-19.27 33.67-31.56 5.47-7.15 9.83-15.27 11.99-24.05 1.06-4.25 1.09-8.82 3.28-12.71 3.1-6.2 9.68-11.01 16.82-10.34 3.86.09 6.54 3.3 8.84 6.02 6.39 8.25 9.58 18.34 13.59 27.84 18.37 3.72 37.35 2.02 55.65-1.24 3.55-.62 7.07-1.59 10.19-3.44-.35-19.34-9.24-37.09-11.69-56.08m-84.74 67.13c3.59 1.64 7.67.68 11.47.61.4-4.88 1.28-9.92-.46-14.64-3.89-1.73-8.18-1.35-12.31-1.28-.05 5.03-1.66 10.83 1.3 15.31zm393.1-72.32l40.1-20.9c1.44 3.85 2.45 7.84 3.13 11.9-18.2 8.28-36.05 17.34-54.61 24.78 1.08-3.48 1.85-7.12 3.77-10.26 1.66-2.83 4.87-4.01 7.61-5.52zm117.53 11.89l13.01-2.53c3.34 11.12 3.21 22.83 4.27 34.3 1.09 9.05.71 18.38 3.71 27.11 3 9.62 11.38 18.02 21.67 19.17 8.24.93 16.42-.99 24.53-2.26-2.58-11.31-6.52-22.85-4.52-34.58 1.95-9.85 6.78-19.68 15.25-25.46 5.68-4.03 13.04-4.52 19.7-3.21 12.35 2.33 22.88 9.74 32.91 16.91-5.6 2.39-10.9 5.98-17.11 6.47-8.34-1.44-15.3-7.59-23.94-7.86-4.81.06-10.61 1.75-12.32 6.8-2.14 6.21-1.3 13.13.41 19.36 1.39 4.63 4.53 9 9.29 10.57 6.63 2.22 14.02 4.01 20.89 1.75 8.09-2.46 15.19-7.74 23.68-8.95 2.9-.54 6.18.17 8.15 2.52 4.36 5.03 3.74 14.44-2.5 17.68-7.07 2.59-15.09 1.63-21.89 5.18-14.21 7.24-28.86 14.07-44.58 17.26-13.26 2.76-27.39 2.76-40.26-1.79-11.3-4.64-18.74-14.8-27.71-22.59-7.81 6.49-15.36 13.53-24.48 18.17-9.09 4.65-19.68 6.01-29.69 4.17-6.82-.74-13.54-3.89-20.46-2.29-5.79 1.13-11.52 3.45-17.51 2.8-4.75-.51-9.35-1.83-13.99-2.87-6.86 6.66-12.79 14.63-21.33 19.3-5.34 2.08-11.22.6-16.76.35l-.72-3.63c11.8-5.73 24.19-12.72 30.61-24.68 5.19-14.39 4.14-31.02 13.21-43.97 2.44-4.21 8.34-6.52 12.65-3.7 13.26 9.13 17.93 27.07 32.87 34.23 15.17 6.39 32.52 1.99 46.42-5.6 4.44-2.42 8.66-5.2 12.8-8.09-1.15-20.11-6.28-39.84-6.26-60.04m-94.39 60.22c-2.19 5.25-1.55 11.08.46 16.29l11.44-1.15c.32-4.01.77-8.33-1.01-12.06-2.47-3.4-7.27-2.48-10.89-3.08zm691.71 20.58c31.41.05 62.8-1.24 94.2-1.54 2.92.18 7.77-.18 8.22 3.79 7.43 41.3 9.61 83.35 9.81 125.25-.15 17.34.15 34.72-1.51 52.01-7.96 100.22-33.74 198.88-74.88 290.58-20.61 45.21-43.86 89.2-69.08 132-6.12 10.01-12.38 19.99-19.66 29.21-6.36-13.51-11.13-27.67-16.33-41.64-3.86-11.41-9.06-22.3-12.92-33.69-12.79-35.2-27.08-69.85-39.07-105.33-.87-2.66-2.11-5.32-1.9-8.16.3-4.01 2.31-7.58 4.08-11.09 5.22-10 10.8-19.83 15.44-30.13 5.65.86 11.19 2.37 16.44 4.66l79.96 33.03c5.4 2.37 11.19 3.68 16.99 4.69 8.83-18.49 14.14-38.35 20.41-57.78-22.36-9.2-45.97-14.73-68.78-22.62 2.47-21.1 8.89-41.43 13.14-62.19 6.91-29.23 11.73-58.95 19.88-87.89 11.8 2.39 23.64 4.92 34.94 9.17l-18.05 90.31c-1.29 6.55-2.95 13.12-3.19 19.82.18 2.44.44 6 3.42 6.61 10.35 3.62 21.14 5.78 31.85 8.13 20.86-59.17 26.3-122.09 33.96-183.94-24.12-6.46-49.31-7.73-73.36-14.53-2.66-36.7-2.06-73.53-3.87-110.27-.3-12.81-1.9-25.68-.14-38.46m31.89 30.54c-.57 30.02 2.74 59.95 2.46 89.97 14.79 2.6 29.87 2.99 44.86 2.73.55-20.59-.22-41.19-.06-61.78.05-9.47.62-19.09-1.76-28.35-15.2-.23-30.29-2.6-45.5-2.57m-118.96 422.7c12.4 32.63 26.84 64.44 39.75 96.87.59 2.07 2.32 3.47 4.45 3.84l34.22-65.52c-9.9-6.99-21.57-10.66-32.43-15.79-15.24-6.68-30.17-14.15-45.99-19.4zm-784.3-407.29c6.75-3.26 13.57-6.56 20.93-8.23-.2 3.42-.03 7.75-3.28 9.9-10.82 6.9-22.66 11.99-34.03 17.9l-22.41 11.65c-6.32 3.33-12.99 6.07-20 7.49.59-4.91.06-11.68 5.25-14.3 17.68-8.51 35.89-15.83 53.54-24.41zm-227.1 16.04c15.73-7.14 31.13-15.09 47.49-20.74-.58 4.63.23 10.86-4.39 13.68-25.96 12.91-53.61 22.2-79.29 35.69-4.09 6.74.32 15.48-3.86 22.25-2.57 4-7.86 4.29-12.01 5.63 1.4-5.81 4.51-11.11 5.27-17.07.75-5.54-3.12-10.06-5.14-14.86 17.15-8.54 34.51-16.63 51.93-24.58zm474.3-2.3c.57-8.18 8.24-14.85 16.34-14.78 4.24.04 8.55 2.89 9.62 7.11 1.44 4.94.47 10.41-2.36 14.68-4.52 6.98-11.97 11.32-19.32 14.78 4.66-6.82 9.17-13.81 12.39-21.46l-16.67-.33zm110.69-2.74c4.03-1.75 9.51-2.18 12.61 1.55 3.84 4.65 3.45 11.33 2.13 16.87-2.59 8.02-10.78 12.26-18.3 14.63 3.52-6.36 6.98-12.83 9.04-19.84l-16.05.28c.91-5.94 4.98-11.22 10.57-13.49zm-156.58 15.39c8.71-5.94 18.15-10.72 27.77-15.03.78 3.65 4.47 7.94 1.8 11.46-9.05 5.94-18.96 10.87-29.57 13.29v-9.72zm-311.56 2.56c1.44-8.98 11.96-15.53 20.54-12.13 6.32 2.73 7.32 10.96 5.34 16.81-3.14 9.03-11.94 14.71-20.73 17.33 3.92-6.76 8.12-13.39 11.25-20.57l-16.4-1.44zm218.95 16.44c15.84-9.02 31.81-18.01 48.89-24.5l-.08 11.37c-16.03 6.81-30.53 17.02-47.26 22.23l-1.55-9.1zm-271.41-22.08c5.23 23.37 9.67 46.93 15.6 70.14 1.49 5.48 2.21 11.96 7.33 15.43 6.73 4.68 14.74 7.18 22.58 9.31 23.47 5.23 47.1-2.23 69.67-8.18-5.81-7.99-16.75-6.14-24.98-9.48-1.74-5.86-1.33-12.66 2.57-17.59 2.99-4.05 7.99-5.61 12.6-7.03 15.74-4.69 32.85-4.64 48.62-.08 4.74 1.45 8.89 6.34 7.74 11.5-2.28 10.09-8.91 18.33-13.71 27.28 10.97 4.07 23.02 2.11 33.79-1.62 1.94-16.82-1.32-34.05-8.84-49.18l13.89-19.93c3.7 10.76 5.12 22.09 7.66 33.14 2.3 10.28 3.32 21.06 1.23 31.47-1.85 9.12-6.33 18.03-13.82 23.78-11.17 8.68-27.12 10.22-39.95 4.44-5.38-2.16-10.46-6.94-16.67-5.34-19.77 4.87-39.79 9.17-60.15 10.54-12.19-.42-24.37-2.21-36.2-5.2-10.22-3.46-16.33-13.22-21.09-22.3-9.22 5.92-18.18 12.61-28.66 16.17-5.1 1.64-10.45 3.12-15.85 2.42-8.54-1.02-16.36-4.86-24.35-7.79-6.62 2.93-10.77 9.75-17.81 11.89-6.96.22-12.15-5.14-17.71-8.49-3.82 3.92-7.44 8.06-11.62 11.61-4.33 4.17-10.88 2.51-16.28 2.79 4.84-8.61 12.62-15.12 17.29-23.83 5.11-9.8 6.71-20.92 11-31.05 1.95-4.4 4.13-8.93 7.87-12.1 2.99-2.54 6.41-4.5 9.65-6.69 3.68 1.28 7.09 3.6 8.93 7.13 3.72 6.65 3.67 14.59 6.57 21.54 1.96 2.08 4.51 3.48 6.98 4.88 18.39 9.54 41.18 4.28 57.38-7.33-1.06-18.44-4.68-36.62-5.96-55.04-.61-6.14 2.5-11.71 4.7-17.21m-89.51 82.35c.43 4.54 5.12 8.19 9.64 7.44 4.39-.68 8.08-5.01 7.53-9.53-.4-2.6-.9-5.7-3.38-7.15-3.34-1.97-7.38-1.83-11.1-2.29-1.61 3.61-3.2 7.48-2.69 11.53zM91.5 1154.74c11.86.93 23.74 1.67 35.52 3.33 4.16.54 4.25 5.57 4.47 8.82 1.23 30.81 4.51 61.5 5.4 92.32 13.39 1.48 26.96.29 40.15-2.19 2.82-2.48 2.11-6.66 2.09-10l-7.52-79.85c12.89-.38 25.77-.86 38.66-.62 1.36 39.67 3.27 79.37 2.41 119.08-20.29 4.3-40.06 11.16-60.74 13.53-13.65 1.63-27.16 4.41-40.84 5.78-3.02-.52-3.24-4.36-3.76-6.76l-12.07-104.61c-1.35-12.93-3.59-25.8-3.77-38.83zm1278.07.38c6.46 10.5 11.35 21.85 16.14 33.18 2.61 6.03-5.11 10.71-3.4 16.8 5.31 24.18 9.44 50.16.95 74.12-4.09-8.49-4.23-18.08-6.13-27.15-4.9-25.67-8.15-51.66-14.28-77.08-1.28-7.34 3.57-13.69 6.72-19.87zm-234.91 19.1c-1.64-6.62 2.26-12.68 5.29-18.22l14.39 65.91c1.83 6.93 3.39 14.72 9.12 19.6 3.92 2.24 8.92 1.68 12.87-.24 5.55-2.74 9.97-7.19 14.65-11.14 3.27 4.24 4.92 10.28 10.08 12.69 6.09 1.97 9.8-4.66 13.76-8.02 4.16 1.57 8.35 3.5 12.92 3.3 2.74-3.53 5.08-7.34 7.33-11.19 7.25 5.57 14.3 11.88 23.08 14.94 4.18 1.53 8.7 1.68 13.11 1.31 1.26-5.37.95-11.09-1.26-16.17-4.1-9.73-11.78-17.25-17.79-25.77l6.28-15.62c12.47 11.82 26.67 24 30.79 41.48 1.69 8.98 3.29 18.9-.75 27.5-2.35 5.31-7.98 8.17-13.49 8.94-7.7 1.03-15.31-.96-22.85-2.26-1.67-.25-3.39-.69-5.01-.09-6.97 2.12-12.86 7.21-20.25 8.01-4.78-.59-8.94-3.37-13.14-5.53-4.27 1.14-8.4 2.95-12.83 3.32-5.65-.52-10.28-4.2-15.15-6.75-4.74 2.92-9.26 6.54-14.77 7.89-4.46 1.17-9.54-.08-12.72-3.47-4.04-4.18-6.03-9.82-7.94-15.19-8.05-24.43-10.05-50.25-15.72-75.23zm87.67-1.01c1.69-5.32 1.68-11.81 6.44-15.56 6.71 1.86 14.16 3.32 19.12 8.64.57 5.99-2.78 11.45-6.07 16.19-6.55-2.98-12.99-6.2-19.49-9.27zm114.28-.19c-.16-5.94 4.18-10.52 7.86-14.65 5.25 17.82 11.59 35.4 14.89 53.74 2.36 13.2 2.78 26.89-.08 40.06-2.09 10.18-5.21 20.79-12.63 28.45-4.63 4.98-11.22 7.65-17.79 8.86-10.05 1.69-20.32-.06-29.96-2.97 14.66-2.48 29.42-8.88 38.69-20.92 6.17-7.79 8.46-17.88 9.15-27.59.71-10.69-.62-21.37-2.31-31.89-1.76-11.23-7.23-21.65-7.82-33.09zm-70.08-9.57c23.52 8.39 44.38 23.6 60.25 42.82 9.58 12.23 13.83 28.39 11.67 43.77-10.52-14-18.12-30.28-30.99-42.43-7.95-8.01-17.93-13.45-27.06-19.92-7.7-5.89-10.47-15.62-13.87-24.24zm-146.26 47.44c-.16-5.18 2.1-10.03 3.54-14.9 12.6 13.03 20.82 31.52 17.99 49.86-1.96 14.41-13.11 25.8-25.53 32.34-11.02 5.71-23.98 7.95-36.21 5.49-9.08-2.02-16.6-8.57-21.25-16.44-3.24-5.29-4.86-11.35-6.22-17.34-3.86-18.33 1.73-38.52 15.05-51.8-1.2 12.57-4.88 25.09-3.13 37.79 1.05 6.8 3.69 14.1 9.92 17.79 8.42 5.15 18.83 4.11 28.16 2.78 6.84-1.4 13.98-2.98 19.76-7.12 5.39-3.82 7.1-11.13 5.86-17.34-1.28-7.51-5.77-13.91-7.94-21.11zm-445.92-11.82l5.76 2.68-.95 4.64-5 1.51.19-8.83zm411.4 23.89c-.13-8.12.85-16.23 3.02-24.05 5.69 3.02 12.35 4.72 16.91 9.51 2.46 2.5 2.44 6.35 1.12 9.42-1.29 3.74-2.75 7.42-4.24 11.08a352.72 352.72 0 0 1-16.81-5.96zm-123.19 59.81c5.4-2.64 10.06-6.48 14.76-10.18 6.74 2.94 13.3 6.28 19.81 9.71-3.2 7.26-7.49 13.96-12.23 20.3-5.86-2.85-11.43-6.58-17.8-8.16-5.36 1.65-8.82 6.35-13.02 9.75-5.71-3.04-12.16-5.71-15.93-11.22.07-6.04 4.24-10.83 7.69-15.39 6 .15 11.07 3.66 16.72 5.19zm354.98 25.88c12.53-7.4 25.51-14.06 39.05-19.39.76 2.54 1.4 5.11 2 7.72-12.87 7.51-26 14.71-39.94 20.03l-1.11-8.36zm-1206.78 23.26c18.31 2.08 35.54 8.96 53.19 13.86l101.48 29.6c10.97 3.41 22.27 5.89 32.9 10.3 2.91 1.09 4.09 4.28 5.18 6.94l6.9 21.18c1.99 5.66 3.45 11.59 3.26 17.65-35.97 21.9-73.99 40.2-110.05 61.97 2.01 7.47 5.09 14.59 8.55 21.49 8.89 17.29 17.08 34.92 25.46 52.47 2.47 5.25 5.22 10.37 8.18 15.38 19.42-8.58 38.13-18.68 57.5-27.39 3.87-1.58 7.58-3.69 11.71-4.53 1.43-.41 2.83.38 3.37 1.75 4.81 9.12 9.88 18.25 12.57 28.28-21.77 12.09-44.81 21.78-66.07 34.8 19.71 28.95 40.11 57.44 61.29 85.33 22.45-12.35 43.21-27.47 65.24-40.49 2.46-1.4 6.23-3.07 8.39-.31 30.19 33.87 59.7 68.34 88.67 103.25 1.93 2.64 4.8 6.28 2.54 9.58-5.78 8.4-13.51 15.18-20.14 22.88l-44.97 51.1c-2.05 2.43-5.79 1.75-7.99-.07-85.72-75.5-160.09-164.64-214.62-265.24-30.43-56.19-54.24-115.79-73.29-176.72-5.62-17.82-10.97-35.72-15.46-53.85-1.54-6.35-2.94-12.73-3.79-19.21m56.28 56.59c6.29 24.54 13.71 48.77 21.4 72.9 29.49-14.11 57.58-30.95 86.96-45.29l-.28-4.69c-36.04-7.56-71.73-16.85-108.08-22.92m190.23 334.77c-3 4.45.42 9.62 3.21 13.23 12.18 15.08 25.37 29.3 38.19 43.83 6.62 7.39 12.84 15.25 20.73 21.37 8.01-10.82 16.34-21.44 23.49-32.87 1.78-2.4.76-5.58-1.15-7.54-4.46-4.87-9.32-9.36-13.99-14.02-15.03-15.04-29.24-30.95-45.38-44.83-8.61 6.59-18.45 12.05-25.1 20.83zM869.9 1380.2c4.18.47 9.24-.89 12.73 2.07 9.11 11.3 9.56 28.29 2.36 40.67-3.62 2.53-8.31 1.37-12.42 1.4 1.25-14.72 1.8-29.88-2.67-44.14zm304.44 56.16c-7.8-13.84-3.6-30.99 4.64-43.61l11.81-.09c-4.51 14.24-5.51 29.3-5 44.15l-11.45-.45zm-299.19 65.73c3.16-14.69 3.08-30.16-1.13-44.62 4.43.54 10.32-1.12 13.53 2.89 7.72 11.73 8.16 28.45-.31 39.9-3.54 2.31-8.1 1.37-12.09 1.83zm294.08-31.14l11.53-.79c-3.82 14.29-5.62 29.23-4.05 44a263.52 263.52 0 0 1-10.87-.82c-8.78-12.92-4.72-30.19 3.39-42.39zM89.27 1527.36c9.9-4.93 19.8-10.26 30.74-12.52 8.99 16.96 18.67 33.66 25.28 51.74-9.87 4.9-19.25 11.25-30.22 13.46-8.35-17.69-17.88-34.8-25.8-52.68zm778.43-2.75c4.38.19 8.79.47 13.06 1.58 8.14 11.52 10.03 27.85 2.75 40.24-2.82 4.58-8.93 3.33-13.46 3.94.44-10.85 3.75-21.8 1.11-32.59-1.02-4.43-2.29-8.79-3.46-13.17zm301.22 15.26c2.89-3.57 7.99-2.73 12.05-3.14-4.01 14.52-5.24 29.74-3.96 44.74l-11.68.06c-6.47-13.15-5.46-29.96 3.59-41.66zm-1045.57 52.08c9.12-4.52 18.36-8.79 27.71-12.82 6.77 7.48 11.79 16.27 16.8 24.96 5.17 9.03 11.72 17.39 15.06 27.36-9.18 4.91-17.91 10.91-28.03 13.79-10.15-17.98-22.77-34.53-31.54-53.29zm1542.95 85.04c13.62 8.97 24.61 21.15 36.48 32.19 8 7.04 15.44 14.69 23.68 21.48 7.47 6.44 14.91 12.98 21.38 20.46-13.75 21.89-33.09 39.34-49.87 58.78-6.11 6.92-11.17 14.74-17.85 21.15-8.41 8.28-17.25 16.11-25.29 24.76-10.85 10.85-22.71 20.62-33.99 31-6.79 6.69-15.12 11.45-22.35 17.6-11.76 9.33-23.4 18.85-36.08 26.93-39.29 27.45-81.11 51.2-124.49 71.57-44.74 20.92-91.46 37.47-139.04 50.65-66.24 18.25-134.3 29.6-202.73 35.43 2.6-8.89 6.07-17.48 9.98-25.86l65.6-150.43c1.29-3.52 4.7-5.95 8.41-6.17 16.34-1.45 32.67-3.19 48.9-5.57 7.29 12.3 10.42 26.39 15.59 39.59l23.03 61.71c2.74 6.95 4.41 14.63 9.3 20.5 8.19-.71 15.9-3.7 23.64-6.26l66.31-22.27c-4.02-26.5-15.51-51.02-21.64-76.99 10.77-4.52 21.35-9.79 32.83-12.31 8.9 23.89 16.63 48.23 26.73 71.66l94.76-47.39c-20.9-38.58-46.28-74.48-68-112.59 7.07-7.29 14.75-13.96 22.33-20.7 1.97-1.86 4.28-3.44 7.1-3.52 4.32 5.42 7.69 11.49 11.23 17.44 9.09 15.41 19.26 30.15 28.47 45.49 9.62 16.65 19.35 33.26 30.11 49.21 13.62-7.87 25.96-17.68 38.37-27.28 3.97-3.07 7.82-6.32 12.14-8.89 2.81-1.66 5.3-3.8 7.25-6.41-7.87-14.6-18.19-27.66-27.14-41.58-4.33-7.01-10.65-12.97-12.84-21.13 4.89-6.56 10.98-12.05 16.84-17.71 5.5-5.2 10.26-11.11 15.56-16.51 11-11.32 22.49-22.17 32.92-34.03 17.56-17.91 34.25-36.66 52.37-54m-23.57 73.7c-14.82 12.83-28.37 27.04-43.11 39.96-2.77 2.52-5.73 4.91-8.04 7.89-1.66 1.96-.72 4.54.42 6.51 6.18 11.79 13.96 22.63 21.34 33.68 13.74-9.16 24.29-22.02 35.73-33.72l33.04-33.88c5.38-5.41 11.25-10.51 15.21-17.13-8.05-10.18-18.69-17.79-27.58-27.14-10.34 6.33-17.9 16.01-27.01 23.83m-470.1 252.99c-6.19 12.8-14.18 24.82-18.47 38.47 11.99-1.11 23.85-3.16 35.76-4.87 13.86-2.34 28.05-3.04 41.6-7.03.54-11.17-4.83-21.27-8.25-31.58-6.41-18.27-11.36-37.09-19.55-54.69-11.46 19.32-20.68 39.83-31.09 59.7zm-663.15-295.61c9.92 6.74 19.15 14.42 28.29 22.19 4.24 2.94 7.78 7.19 7.94 12.6l10.61 115.09c1.37 14.51 1.98 29.27 5.8 43.41 24.65-32.14 46.35-66.4 69.96-99.29 10.16 2.9 19.3 8.38 28.03 14.19-9.28 18.35-19.66 36.11-29.97 53.9l-24.84 43.14c-3.47 6.05-6.72 12.28-8.91 18.93l108.78 54.91c13.4-22.14 22.97-46.32 36.07-68.63 11.84 2.43 23.38 6.15 34.73 10.27-6.76 19.51-15.85 38.09-24.04 57.02-1.69 3.89-2.31 8.12-2.83 12.32 25.91 9.07 50.89 20.6 76.88 29.46 6.23-24.54 11.13-49.4 18.05-73.76 12.48-.43 25.02-.32 37.42 1.32-3.91 25.56-11.34 50.5-13.98 76.27 25.43 5.05 51.03 9.16 76.6 13.4 4.49-23.59 5.95-47.6 9.35-71.35 11.93-1.74 24.1-2.31 36.05-.49-.92 19.89-4.67 39.51-7.19 59.24l-7.21 51.19c-43.05.11-85.85-6.42-127.92-15.07-10.74-1.85-21.58-3.27-32.1-6.14-4.77-1.22-9.32-3.14-14.07-4.38-77.46-21.61-152.23-52.84-222.01-92.83-16.21-9.29-32.02-19.27-47.92-29.08-23.72-14.84-47.1-30.39-68.58-48.38 7.23-8.31 12.87-18.34 22.32-24.45 12.16 4.39 22.17 13.37 34.76 16.76-.07-28.73-2.87-57.34-5.13-85.95-1.95-20.91-2.38-41.92-3.86-62.85a568.78 568.78 0 0 1-1.08-22.96zm518.84 210.22c10.82-2.15 21.92-2.22 32.9-1.68 1.11 36.2-2.54 72.31-2.67 108.5-.05 4.27-.74 8.51-.92 12.8-.83 15.5-.19 31.1-2.11 46.54l-32.65.24c-1.28-9.54 0-19.13.24-28.68.93-27.01.49-54.06 2.32-81.03 1.24-18.89-.01-37.93 2.89-56.69zm331.2 160.98l48.09-18.09c6.92 10.5 12.47 21.82 18.86 32.64-4.11 2.67-8.4 5.11-13.08 6.66-13.19 4.47-26.02 9.89-39.21 14.36-5.4-11.61-12.82-22.65-14.66-35.57zm-65.43 20.27c18.02-4.03 35.19-11.83 53.73-13.43 5.47 10.45 11.76 20.61 15.25 31.97-18.61 5.13-36.95 11.5-56.06 14.61-4.72-10.87-10.99-21.3-12.92-33.15z" />
  </g>
</svg>